<svg xmlns="http://www.w3.org/2000/svg" xmlns:xlink="http://www.w3.org/1999/xlink" viewBox="0 0 282 155" fill="#fff" fill-rule="evenodd" stroke="#000" stroke-linecap="round" stroke-linejoin="round"><use xlink:href="#A" x=".5" y=".5"/><symbol id="A" overflow="visible"><path d="M50 6h45v32.5H50zm67.5 0h45v32.5h-45zm65 0h45v32.5h-45zM5 96V51h32.5v45zm45 20h45v32.5H50zm67.5 0h45v32.5h-45zm65 0h45v32.5h-45zM245 96V51h32.5v45z" fill="#546e7a"/><path fill="#a1887f" d="M32.5 26h215v100h-215z"/><rect height="10" rx="3" width="45" x="50"/><rect height="10" rx="3" width="45" x="117.5"/><rect height="10" rx="3" width="45" x="182.5"/><rect height="10" rx="3" width="45" x="182.5" y="143.5"/><rect height="10" rx="3" width="45" x="117.5" y="143.5"/><rect height="10" rx="3" width="45" x="50" y="143.5"/><rect height="10" rx="3" width="45" transform="matrix(0 1 -1 0 280.5 51)"/><rect height="10" rx="3" width="45" transform="matrix(0 1 -1 0 10 51)"/></symbol></svg>