<svg xmlns="http://www.w3.org/2000/svg" xmlns:xlink="http://www.w3.org/1999/xlink" viewBox="0 0 126 64" fill="#fff" fill-rule="evenodd" stroke="#000" stroke-linecap="round" stroke-linejoin="round"><use xlink:href="#A" x=".5" y=".5"/><symbol id="A" overflow="visible"><path fill="#90a4ae" d="M12.5 10h50v47.5h-50z"/><g fill="#546e7a"><rect height="55" rx="3" width="12.5" y="7.5"/><path d="M0 0h62.5v12.5H0z"/></g><path fill="#90a4ae" d="M62.5 10h50v47.5h-50z"/><g fill="#546e7a"><path d="M62.5 0H125v12.5H62.5z"/><rect height="55" rx="3" width="12.5" x="112.5" y="7.5"/></g><path d="M106.182 21.214a.59.59 0 0 1-.057-.484c.231-.723.875-2.982.875-5.685a19.64 19.64 0 0 0-.875-5.685.59.59 0 0 1 .057-.484l.45-.786c.22-.384.011-.809-.522-1.061a2.52 2.52 0 0 0-1.83-.067 2.54 2.54 0 0 1-1.429.066C101.439 6.679 97.642 6 89.5 6s-11.939.679-13.352 1.028c-.467.115-.998.091-1.429-.066-.573-.208-1.303-.182-1.83.067-.533.252-.742.677-.522 1.061l.451.786a.59.59 0 0 1 .057.484A19.64 19.64 0 0 0 72 15.045c0 2.702.644 4.961.875 5.685a.59.59 0 0 1-.057.484l-.451.786c-.22.384-.011.809.522 1.061a2.52 2.52 0 0 0 1.83.067 2.54 2.54 0 0 1 1.429-.066c1.413.349 5.21 1.028 13.352 1.028s11.939-.679 13.352-1.028c.467-.115.997-.091 1.429.066.573.208 1.303.182 1.83-.067.533-.252.742-.677.522-1.061zm-54 0a.59.59 0 0 1-.057-.484c.231-.723.875-2.982.875-5.685a19.64 19.64 0 0 0-.875-5.685.59.59 0 0 1 .057-.484l.45-.786c.22-.384.011-.809-.522-1.061a2.52 2.52 0 0 0-1.83-.067 2.54 2.54 0 0 1-1.429.066C47.439 6.679 43.642 6 35.5 6s-11.939.679-13.352 1.028c-.467.115-.998.091-1.429-.066-.573-.208-1.303-.182-1.83.067-.533.252-.742.677-.522 1.061l.451.786a.59.59 0 0 1 .057.484A19.64 19.64 0 0 0 18 15.045c0 2.702.644 4.961.875 5.685a.59.59 0 0 1-.057.484l-.451.786c-.22.384-.011.809.522 1.061a2.52 2.52 0 0 0 1.83.067 2.54 2.54 0 0 1 1.429-.066c1.413.349 5.21 1.028 13.352 1.028s11.939-.679 13.352-1.028c.467-.115.997-.091 1.429.066.573.208 1.303.182 1.83-.067.533-.252.742-.677.522-1.061zm0 0"/></symbol></svg>