<svg xmlns="http://www.w3.org/2000/svg" xmlns:xlink="http://www.w3.org/1999/xlink" viewBox="0 0 149 158" fill="#fff" fill-rule="evenodd" stroke="#000" stroke-linecap="round" stroke-linejoin="round"><use xlink:href="#A" x=".5" y=".5"/><symbol id="A" overflow="visible"><path fill="#eceff1" d="M5 5h138v150H5z"/><path d="M143 76.39L102.594 52H5v102h138z" fill="#546e7a"/><path fill="#795548" d="M0 147h148v10H0z"/><g transform="matrix(-1 0 0 -1 143.000038 76)"><path d="M40.406 24L0 0h40.406z" fill="#90a4ae"/></g><path d="M63.251 41.193a.78.78 0 0 1-.076-.641c.306-.958 1.158-3.948 1.158-7.525s-.852-6.568-1.158-7.526a.78.78 0 0 1 .076-.641l.596-1.041c.291-.508.015-1.071-.691-1.405-.697-.329-1.663-.365-2.422-.089a3.37 3.37 0 0 1-1.892.088c-1.871-.462-6.897-1.361-17.676-1.361s-15.805.899-17.676 1.361a3.37 3.37 0 0 1-1.892-.088c-.759-.276-1.725-.24-2.422.089-.705.333-.982.896-.691 1.405l.597 1.041c.118.206.144.427.076.641-.306.958-1.158 3.948-1.158 7.526a25.98 25.98 0 0 0 1.158 7.525.78.78 0 0 1-.076.641l-.597 1.041c-.291.508-.014 1.071.691 1.405a3.34 3.34 0 0 0 2.422.089 3.37 3.37 0 0 1 1.892-.088c1.872.461 6.898 1.36 17.677 1.36s15.805-.899 17.676-1.361a3.37 3.37 0 0 1 1.892.088 3.34 3.34 0 0 0 2.422-.089c.705-.333.982-.896.691-1.405zm60 0a.78.78 0 0 1-.076-.641c.306-.958 1.158-3.948 1.158-7.525s-.852-6.568-1.158-7.526a.78.78 0 0 1 .076-.641l.596-1.041c.291-.508.015-1.071-.691-1.405-.697-.329-1.663-.365-2.422-.089a3.37 3.37 0 0 1-1.892.088c-1.871-.462-6.897-1.361-17.676-1.361s-15.805.899-17.676 1.361a3.37 3.37 0 0 1-1.892-.088c-.759-.276-1.725-.24-2.422.089-.705.333-.982.896-.691 1.405l.597 1.041c.118.206.144.427.076.641-.306.958-1.158 3.948-1.158 7.526a25.98 25.98 0 0 0 1.158 7.525.78.78 0 0 1-.076.641l-.597 1.041c-.291.508-.014 1.071.691 1.405a3.34 3.34 0 0 0 2.422.089 3.37 3.37 0 0 1 1.892-.088c1.871.462 6.897 1.361 17.676 1.361s15.805-.899 17.676-1.361a3.37 3.37 0 0 1 1.892.088 3.34 3.34 0 0 0 2.422-.089c.705-.333.982-.896.691-1.405zm0 0"/><path fill="#795548" d="M0 0h148v10H0z"/></symbol></svg>