<svg width="455" height="455" viewBox="0 0 455 455" fill="none" xmlns="http://www.w3.org/2000/svg">
<g clip-path="url(#clip0_601_2)">
<path d="M391.319 262.948C387.003 258.632 384.486 252.518 384.486 246.764C384.486 240.65 387.003 234.896 391.319 230.58C395.635 226.264 401.389 223.747 407.503 223.747C413.617 223.747 419.371 226.264 423.687 230.58C428.003 234.896 430.521 240.65 430.521 246.764C430.521 252.878 428.003 258.992 423.687 262.948C419.371 267.264 413.257 269.781 407.503 269.781C401.749 269.781 395.635 267.264 391.319 262.948Z" fill="#EFDC81"/>
<path d="M364.705 323.369C368.661 316.176 376.574 311.5 384.845 311.5C388.802 311.5 392.758 312.579 395.994 314.378C407.144 320.492 411.1 334.878 404.986 345.667C396.714 360.053 387.003 373.72 375.495 385.948C371.179 390.623 365.065 393.141 358.591 393.141C352.837 393.141 347.082 390.983 342.767 386.667C338.451 382.351 335.574 376.597 335.574 370.483C335.214 364.369 337.732 358.614 342.047 353.939C350.679 344.948 358.231 334.518 364.705 323.369Z" fill="#EFDC81"/>
<path d="M163.662 391.702C166.539 391.702 169.057 392.062 171.934 393.141C189.916 399.974 208.618 403.571 228.039 403.571C241.346 403.571 254.653 401.772 267.241 398.535C268.32 398.176 269.399 397.816 270.478 397.816C272.635 397.097 274.793 397.097 276.592 397.097C287.021 397.097 296.012 403.93 298.89 414C302.486 426.228 295.293 439.176 283.065 442.412C281.627 442.772 280.188 443.132 279.109 443.491C262.565 447.807 245.662 449.965 228.399 449.965C203.583 449.965 179.127 445.649 156.11 436.658C150.355 434.5 145.68 430.184 143.162 424.43C140.645 418.676 140.285 412.562 142.803 406.807C145.32 397.816 153.952 391.702 163.662 391.702Z" fill="#F0C960"/>
<path d="M169.057 51.8351C169.416 51.1158 169.416 50.0368 168.337 49.3175L166.539 48.2386C161.144 45.0018 157.548 39.9667 156.469 33.8527C155.03 27.7387 156.109 21.6247 159.346 16.5896C162.583 11.1949 167.618 7.59842 173.732 6.51948C179.846 5.08089 185.96 6.15983 190.995 9.39666L243.144 42.4842C248.539 45.7211 252.135 50.7561 253.214 56.8701C254.653 62.9841 253.574 69.0982 250.337 74.1332L217.249 126.282C212.934 133.115 205.741 137.072 197.828 137.072C193.513 137.072 189.197 135.993 185.6 133.475C180.206 130.238 176.609 125.203 175.53 119.089C174.092 112.975 175.171 106.861 178.407 101.826L178.767 101.466C179.127 100.747 179.127 100.028 178.767 99.3086C178.407 98.2296 177.329 98.2296 176.969 98.2296C113.671 120.168 70.8728 179.51 70.8728 246.764C70.8728 282.009 82.3816 315.457 103.96 343.15C111.873 353.22 110.074 367.606 100.004 375.518C96.0482 378.755 91.0131 380.553 85.6184 380.553C78.4255 380.553 71.9518 377.316 67.2764 371.562C39.2238 335.597 24.1186 292.439 24.1186 246.404C24.1186 176.633 59.3641 112.616 118.346 74.8525C119.785 74.8525 119.785 73.7736 119.425 73.0543L165.46 51.8351L166.539 52.5544C167.258 52.914 168.337 52.5544 169.057 51.8351Z" fill="#FFC52F"/>
<path d="M407.863 275.176C415.415 275.176 422.608 272.299 428.003 266.904C433.398 261.51 436.275 254.317 436.275 246.764C436.275 239.212 433.398 232.019 428.003 226.624C422.608 221.229 415.415 218.352 407.863 218.352C400.31 218.352 393.117 221.229 387.722 226.624C382.328 232.019 379.451 239.212 379.451 246.764C379.451 254.317 382.328 261.51 387.722 266.904C392.398 271.94 399.95 275.176 407.863 275.176ZM407.863 225.545C413.617 225.545 419.012 227.703 422.968 231.659C426.924 235.615 429.082 241.01 429.082 246.764C429.082 252.519 426.924 257.913 422.968 261.869C419.012 265.826 413.617 267.983 407.863 267.983C402.108 267.983 396.354 265.826 392.758 261.869C388.801 257.913 386.644 252.519 386.644 246.764C386.644 241.01 388.801 235.615 392.758 231.659C396.714 227.703 402.108 225.545 407.863 225.545Z" fill="black"/>
<path d="M358.951 398.895C366.144 398.895 373.696 395.658 379.451 389.904C391.319 377.316 401.389 363.29 410.021 348.544C417.573 334.878 412.538 317.615 398.872 309.702C385.205 302.15 367.942 307.185 360.03 320.851C353.197 332 346.004 342.071 337.732 350.702C326.942 362.211 327.662 380.553 339.17 390.983C344.565 396.377 351.398 398.895 358.951 398.895ZM385.205 313.658C388.802 313.658 392.038 314.378 395.275 316.176C405.345 321.93 408.942 334.878 403.547 344.948C395.635 359.334 385.565 372.641 374.416 384.869C370.1 389.184 364.346 391.702 358.951 391.702C353.556 391.702 348.161 389.544 344.205 385.948C335.574 378.035 335.214 364.369 343.486 355.737C351.758 346.746 359.67 336.316 366.503 324.448C370.46 317.615 377.653 313.658 385.205 313.658Z" fill="black"/>
<path d="M227.679 455C245.302 455 262.925 452.842 279.828 448.526C280.907 448.167 282.346 447.807 283.425 447.447C290.977 445.29 297.091 440.614 300.688 434.14C304.284 427.667 305.363 419.755 303.205 412.562C299.249 397.456 283.425 388.465 268.32 392.781C267.96 392.781 267.96 392.781 267.6 393.141H267.241C266.521 393.141 265.802 393.5 265.442 393.5C252.855 396.737 240.267 398.176 227.679 398.176C208.618 398.176 190.276 394.939 173.732 388.465C166.899 385.588 159.346 385.948 152.513 388.825C145.32 392.062 139.925 397.456 137.048 405.009C134.171 411.842 134.531 419.395 137.408 426.228C140.645 433.421 146.039 438.816 153.592 441.693C177.688 450.325 202.864 455 227.679 455ZM275.872 398.895C285.223 398.895 293.854 405.009 296.372 414.36C297.811 419.755 297.091 425.509 294.574 430.544C291.697 435.579 287.381 438.816 281.626 440.614C280.188 440.974 278.749 441.333 277.311 441.693C261.486 446.009 244.583 447.807 227.32 447.807C203.223 447.807 179.127 443.491 155.39 434.86C149.995 432.702 145.68 428.746 143.522 423.351C141.364 418.316 141.364 412.562 143.162 407.527C145.32 402.132 149.276 397.816 154.671 395.299C159.706 393.141 165.46 393.141 170.495 394.939C188.118 401.772 207.179 405.369 227.32 405.369C240.267 405.369 253.934 403.57 266.881 400.334C267.6 400.334 267.6 399.974 267.96 399.974C268.679 399.974 269.398 399.614 270.118 399.614C272.276 398.895 274.074 398.895 275.872 398.895Z" fill="black"/>
<path d="M85.6188 385.948C92.0925 385.948 98.2065 383.79 103.242 379.834C109.356 375.158 113.312 368.325 114.031 360.772C115.11 353.22 112.952 345.667 108.277 339.913C87.417 312.939 76.268 280.931 76.268 246.764C76.268 184.905 113.671 129.879 170.136 106.502C169.057 110.817 169.057 115.493 170.136 119.809C171.934 127.361 176.25 133.475 182.724 137.431C187.399 140.308 192.074 142.107 197.829 142.107C207.899 142.107 216.89 137.072 222.285 128.8L255.372 76.6508C259.329 70.5368 260.767 62.6246 258.969 55.072C257.171 47.879 252.855 41.4054 246.381 37.4493L194.232 4.36167C187.759 0.405552 180.206 -1.03304 172.654 0.7652C165.101 2.56344 158.987 6.87921 155.031 13.3529C151.075 19.8265 149.636 27.3791 151.434 34.9317C153.233 42.4843 157.548 48.5983 164.022 52.5544L165.82 53.6334C167.618 54.7123 169.776 53.993 170.855 52.5544C171.934 50.7562 171.215 48.5983 169.776 47.5194L167.978 46.4404C158.268 40.3264 155.031 27.0195 161.145 17.309C164.022 12.6336 168.697 9.39674 174.452 7.95815C179.846 6.51956 185.601 7.5985 190.276 10.4757L242.425 43.5633C247.46 46.8001 250.697 51.1159 252.136 56.8702C253.215 62.6246 252.495 68.3789 249.258 72.6947L216.171 124.844C212.215 130.958 205.381 134.554 197.829 134.554C193.513 134.554 189.917 133.475 186.68 131.317C182.004 128.44 178.408 123.765 177.329 118.01C176.25 112.616 176.969 107.581 179.487 102.905C180.925 101.826 181.645 100.028 180.925 98.5893C180.206 96.7911 178.048 96.0718 176.61 96.4314C112.592 118.37 69.4347 178.791 69.4347 246.404C69.4347 282.01 80.9434 315.816 102.882 343.869C106.478 348.185 107.917 353.939 107.198 359.334C106.478 365.088 103.601 370.123 99.2854 373.72C95.3293 376.597 90.6539 378.395 85.9785 378.395C79.1452 378.395 73.3908 375.518 69.075 370.123C41.0225 334.518 26.277 291.36 26.277 246.045C26.277 176.992 61.1628 113.335 119.426 75.9315C121.224 74.8526 121.584 72.6947 120.505 70.8965C119.426 69.0982 117.268 68.7386 115.47 69.8175C55.0488 108.659 18.7244 174.115 18.7244 245.685C18.7244 292.799 34.1892 337.036 62.961 374.079C68.7154 381.992 76.6276 385.948 85.6188 385.948Z" fill="black"/>
</g>
<defs>
<clipPath id="clip0_601_2">
<rect width="455" height="455" fill="white" transform="matrix(-1 0 0 1 455 0)"/>
</clipPath>
</defs>
</svg>
