<svg xmlns="http://www.w3.org/2000/svg" xmlns:xlink="http://www.w3.org/1999/xlink" viewBox="0 0 121 83" fill="#fff" fill-rule="evenodd" stroke="#000" stroke-linecap="round" stroke-linejoin="round"><use xlink:href="#A" x=".5" y=".5"/><symbol id="A" overflow="visible"><path d="M4.771 0h109.733c2.624 0 4.771 2.147 4.771 4.771v71.565c0 2.624-2.147 4.771-4.771 4.771H4.771C2.147 81.107 0 78.96 0 76.336V4.771C0 2.147 2.147 0 4.771 0z"/><path d="M18.678 15.792h81.822c2.147 0 3.578 1.67 3.578 3.578v53.435c0 1.908-1.431 3.578-3.578 3.578H18.678c-1.908 0-3.578-1.67-3.578-3.578V19.37c0-1.908 1.67-3.578 3.578-3.578z" fill="#ccf2ff"/><path d="M52.433 48.402c0-3.817 3.101-6.918 7.157-6.918s7.156 3.101 7.156 6.918-3.101 6.918-7.156 6.918-7.157-3.101-7.157-6.918z"/><g fill="#646464"><path d="M54.628 48.354c0-2.624 2.147-4.771 5.01-4.771s5.01 2.147 5.01 4.771-2.147 4.771-5.01 4.771-5.01-2.147-5.01-4.771zM43.869 7.085H76.55v4.055H43.869V7.085zm11.713 4.365h7.157l-1.193 17.176s0 2.385-2.386 2.385-2.624-2.385-2.624-2.385l-.954-17.176z"/><path d="M54.342 9.041c0-2.385 2.147-4.532 4.771-4.532s4.771 2.147 4.771 4.532c0 2.624-2.147 4.771-4.771 4.771s-4.771-2.147-4.771-4.771z"/><use xlink:href="#C"/><use xlink:href="#C" x="33.85"/></g></symbol><defs ><path id="C" d="M38.741 9.113c0-2.147 1.67-3.817 4.055-3.817 2.147 0 3.817 1.67 3.817 3.817s-1.67 3.817-3.817 3.817c-2.385 0-4.055-1.67-4.055-3.817z"/></defs></svg>