<svg xmlns="http://www.w3.org/2000/svg" xmlns:xlink="http://www.w3.org/1999/xlink" viewBox="0 0 48 134" fill="#fff" fill-rule="evenodd" stroke="#000" stroke-linecap="round" stroke-linejoin="round"><use xlink:href="#A" x=".5" y=".5"/><symbol id="A" overflow="visible"><g fill="#a1887f"><use xlink:href="#C"/><path d="M0 43.52h43.4v44.5H0v-44.5z" stroke="none"/><path d="M0 43.52h43.4v44.5H0v-44.5zm41.4 0v44.5"/><use xlink:href="#C" y="44.23"/><path d="M0 87.75h43.4v44.5H0v-44.5z" stroke="none"/><path d="M0 87.75h43.4v44.5H0v-44.5zm41.4 0v44.5"/><use xlink:href="#C" y="-43.52"/><path d="M0 0h43.4v44.5H0V0z" stroke="none"/><path d="M0 0h43.4v44.5H0V0zm41.4 0v44.5"/></g></symbol><defs ><path id="C" d="M40.31 65.71c0-1.4 1.3-2.6 2.8-2.6 1.6 0 2.9 1.2 2.9 2.6 0 1.5-1.3 2.7-2.9 2.7-1.5 0-2.8-1.2-2.8-2.7z"/></defs></svg>